/* XPM */
static char *bitcoin64[] = {
/* columns rows colors chars-per-pixel */
"64 64 178 2 ",
"   c #010000",
".  c #0C0403",
"X  c #0E070B",
"o  c #1D0000",
"O  c #120000",
"+  c #000011",
"@  c #0A0E13",
"#  c #030D19",
"$  c #130D10",
"%  c #0E1317",
"&  c #0F1418",
"*  c #111519",
"=  c #141A1E",
"-  c #1E1B1D",
";  c #101417",
":  c #240100",
">  c #260D00",
",  c #290B00",
"<  c #271300",
"1  c #281700",
"2  c #281902",
"3  c #281C0B",
"4  c #221E1F",
"5  c #291F12",
"6  c #2A2116",
"7  c #29221A",
"8  c #322310",
"9  c #000020",
"0  c #111C23",
"q  c #1B1F23",
"w  c #231F20",
"e  c #182227",
"r  c #182A35",
"t  c #242121",
"y  c #2A2625",
"u  c #252B2E",
"i  c #2C2B2B",
"p  c #272728",
"a  c #322D2D",
"s  c #2B2F31",
"d  c #332F30",
"f  c #2D3235",
"g  c #2E363A",
"h  c #2F383E",
"j  c #273035",
"k  c #353334",
"l  c #393636",
"z  c #303539",
"x  c #3E3B3C",
"c  c #373A3D",
"v  c #413D3E",
"b  c #43403D",
"n  c #0D3B4A",
"m  c #2F3A41",
"M  c #303E45",
"N  c #423F40",
"B  c #32434C",
"V  c #394248",
"C  c #344955",
"Z  c #354D59",
"A  c #334752",
"S  c #385564",
"D  c #3A5969",
"F  c #3E667B",
"G  c #3F687C",
"H  c #3F6173",
"J  c #444142",
"K  c #4A4544",
"L  c #4C494A",
"P  c #585453",
"I  c #4F4E50",
"U  c #635E5A",
"Y  c #66615D",
"T  c #485E69",
"R  c #586570",
"E  c #7B7370",
"W  c #736D69",
"Q  c #837971",
"!  c #FC8B00",
"~  c #FD9201",
"^  c #FF9800",
"/  c #FF9E3D",
"(  c #FB9729",
")  c #91867E",
"_  c #FA9D47",
"`  c #F89E51",
"'  c #FFA34D",
"]  c #F8A86A",
"[  c #F3AA77",
"{  c #3A6B85",
"}  c #416B81",
"|  c #45748C",
" . c #4A7C96",
".. c #487B96",
"X. c #4A819B",
"o. c #4C86A1",
"O. c #4F8AA6",
"+. c #4F8DAA",
"@. c #518EAB",
"#. c #5190AE",
"$. c #5394B4",
"%. c #569CBC",
"&. c #589FC1",
"*. c #5AA2C4",
"=. c #5BA6C9",
"-. c #5DAACE",
";. c #56A3C7",
":. c #5EADD2",
">. c #4AAFD9",
",. c #60AED4",
"<. c #60B0D7",
"1. c #62B4DA",
"2. c #64B8DF",
"3. c #68B5DA",
"4. c #61AACD",
"5. c #4EBAE7",
"6. c #4DBDE9",
"7. c #46BCEA",
"8. c #54BAE5",
"9. c #5CBAE4",
"0. c #54BEE9",
"q. c #66BCE3",
"w. c #6ABCE3",
"e. c #67BFE8",
"r. c #68BFE8",
"t. c #71BEE4",
"y. c #47C0EE",
"u. c #53C0EC",
"i. c #5BC1EB",
"p. c #69C1EB",
"a. c #68C1E9",
"s. c #75C3E8",
"d. c #6CC6F1",
"f. c #6DC8F3",
"g. c #64C6F0",
"h. c #968D86",
"j. c #A1978F",
"k. c #AB9D93",
"l. c #BAA497",
"z. c #BDADA2",
"x. c #BDB2A8",
"c. c #EDAF89",
"v. c #E3B39B",
"b. c #EAB598",
"n. c #F4BC9A",
"m. c #F3B388",
"M. c #C8B6A9",
"N. c #DABBAB",
"B. c #C5BCB6",
"V. c #D3BBB4",
"C. c #D5BEB8",
"Z. c #E4B8A4",
"A. c #DEC2AF",
"S. c #CFC0B4",
"D. c #D3C2B8",
"F. c #E2C0AF",
"G. c #E1C9BA",
"H. c #83B3CF",
"J. c #B8BEC9",
"K. c #9DC4DC",
"L. c #B6C0CE",
"P. c #A6C4D9",
"I. c #B3C4D3",
"U. c #BBC7D4",
"Y. c #8AC5E4",
"T. c #81C2E3",
"R. c #92C6E3",
"E. c #C5C0C5",
"W. c #C6C3C8",
"Q. c #C4D2DD",
"!. c #E6D2C6",
"~. c #ECD7CB",
"^. c #EDD5C7",
"/. c #F0D8C7",
"(. c #FAE1CF",
"). c #FFE6D0",
"_. c #FFF2DE",
"`. c None",
/* pixels */
"`.`.`.`.`.`.`.`.`.`.`.`.`.`.`.`.`.`.`.`.`.`.`.`.`.`.`.`.`.`.`.`.`.`.`.`.`.`.`.`.`.`.`.`.`.`.`.`.`.`.`.`.`.`.`.`.`.`.`.`.`.`.`.`.",
"`.`.`.`.`.`.`.`.`.`.`.`.`.`.`.`.`.`.`.`.`.`.`.`.`.`.`.`.`.`.`.`.`.`.`.`.`.`.`.`.`.`.`.`.`.`.`.`.`.`.`.`.`.`.`.w w w w w `.`.`.`.",
"`.`.`.`.`.`.`.`.`.`.`.`.`.`.`.`.`.`.`.`.`.`.`.`.`.`.`.`.`.`.`.`.`.`.`.`.`.`.`.`.`.`.`.`.`.`.`.`.w w w w w w y y w w `.`.`.`.`.`.",
"`.`.`.`.`.`.`.`.`.`.`.`.`.`.`.`.`.`.`.`.`.`.`.`.`.`.`.`.`.`.`.`.`.`.`.`.`.`.`.`.`.w w w t w t t t t t t w w 4 w `.`.`.`.`.`.`.`.",
"`.`.`.`.`.`.`.`.`.`.`.`.`.`.`.`.`.`.`.`.`.`.`.`.`.`.`.`.`.`.`.`.`.`.w t t w w w t t t t t t w w w w t t w t `.`.`.`.`.`.`.`.`.`.",
"`.`.`.`.`.`.`.`.`.`.`.`.`.`.`.`.`.`.`.`.`.`.`.`.`.`.`.`.`.`.w w w t t t t t t t w w w w w 4 w 4 t t 4 4 `.`.`.`.`.`.`.`.`.`.`.`.",
"`.`.`.`.`.`.`.`.`.`.`.`.`.`.`.`.`.`.`.`.`.`.`.`.`.`.`.`.4 4 t w t w w w w w w w w w w w w w t t w t `.`.`.`.`.`.`.`.`.`.`.`.`.`.",
"`.`.`.`.`.`.`.`.`.`.`.`.`.`.`.`.`.`.`.`.`.`.`.`.`.t 4 w a i 4 w w w w w w w w w w w w 4 t t t w `.`.`.`.`.`.`.`.`.`.`.`.`.`.`.`.",
"`.`.`.`.`.`.`.`.`.`.`.`.`.`.`.`.`.`.`.`.`.`.`.t t w i a     y w w w w w w w w w w t t t w w `.`.`.`.`.`.`.`.`.`.`.`.`.`.`.`.`.`.",
"`.`.`.`.`.`.`.`.`.`.`.`.`.`.`.`.`.`.`.`.`.w w t t a X   Y U   t t w w w w w t 4 w t 4 t - % % `.`.`.`.`.`.`.`.`.`.`.`.`.`.`.`.`.",
"`.`.`.`.`.`.`.`.`.`.`.`.`.`.`.`.`.`.`.4 t w w p i     j.B.E   y t t w w w w w t w t - & % & ; & `.`.`.`.`.`.`.`.`.`.`.`.`.`.`.`.",
"`.`.`.`.`.`.`.`.`.`.`.`.`.`.`.`.w 4 y w w y a     W M.x.Y   y w 4 4 w w w t w t `.% % & & & & ; ; `.`.`.`.`.`.`.`.`.`.`.`.`.`.`.",
"`.`.`.`.`.`.`.`.`.`.`.`.`.`.4 t w w 4 4 a 4   a k.S.h.    4 t w w w w t w t `.% % % & % % % % % ; `.`.`.`.`.`.`.`.`.`.`.`.`.`.`.",
"`.`.`.`.`.`.`.`.`.`.`.`.- 4 w 4 4 - y a     Q M.z.L   $ a t 4 w w t w w w ; % & & % % & & % & % & & `.`.`.`.`.`.`.`.`.`.`.`.`.`.",
"`.`.`.`.`.`.`.`.`.y p i a a k k k v a   P M.D.)     a y 4 - 4 7 t 7 w ; % & & % % % & % % % ; % & & & `.`.`.`.`.`.`.`.`.`.`.`.`.",
"`.`.`.`.`.`.`.l k x v x x v v J K # r j.!.M.P   v b c l d d p 4 - @ # % & & % % % % % % % % & % % % & `.`.`.`.`.`.`.`.`.`.`.`.`.",
"`.`.`.`.`.x x N N N x x v x v l   Q !./.h.+ p K v x v J N v l f u q * % @ % ; ; % % % % % % % % % % % ; `.`.`.`.`.`.`.`.`.`.`.`.",
"`.`.v x J K J N N N J N N K l V M./.M.L   K K M N N N v x z f z g f f u q ; % % % ; % % ; % % % % & 0 0 . `.`.`.`.`.`.`.`.`.`.`.",
"`.`.`.`.`.`.`.`.x v v x J k m !._.`.  e L N v v x x M `.f f z f f f f f f s e = % @ % % ; % % % 0 0     0 `.`.`.`.`.`.`.`.`.`.`.",
"`.`.`.`.`.`.`.`.`.`.`.`.`.`.`.).l.  J x f s k k k k k s z f f f f f f f f f f f u q % @ % % 0 0     e F $.-.`.`.`.`.`.`.`.`.`.`.",
"`.`.`.`.`.`.`.`.`.`.`.`.`.`.`.).l.  N f z f f f f f h f f f f f f f f f f f f f f f u e & 0     r { $.:.:.<.:.:.`.`.`.`.`.`.`.`.",
"`.`.`.`.`.`.`.`.`.`.`.`.`.`.`.).M.  c f f f f f f f f f f f f f f f f f f f f f f f k z j . X { %.<.:.:.:.:.:.<.`.`.`.`.`.`.`.`.",
"`.`.`.`.`.`.`.`.`.`.`.`.`.`.`.`.M.  c f f f f f f f f f f f f f f f f f f f f f f f h i , H %.1.:.:.-.-.-.-.-.:.<.`.`.`.`.`.`.`.",
"`.`.`.`.`.`.`.`.`.`.`.`.`.`.`.`.N.  x f f f f f f f f f f f f f f f f f f f f f f h < f o.2.p.q.2.:.-.-.:.-.-.-.:.:.`.`.`.`.`.`.",
"`.`.`.`.`.`.`.`.`.`.`.`.`.`.`./.A.+ l g f f f f f f f f f f f f f f f f f f f f g : S *.w.e.q.q.q.q.<.-.-.-.:.-.:.1.-.`.`.`.`.`.",
"`.`.`.`.`.`.`.`.`.`.`.`.`.`.`.F.~.T   x s f f s f f f f f f f f f f f f f s g f , { <.a.q.q.q.q.q.q.q.q.:.-.-.-.:.-.1.-.`.`.`.`.",
"`.`.`.`.`.`.`.`.`.`.`.`.`.`.`.D.~.R + V m m z h h f f f s f f f f f f f f g u 1 X.q.a.2.q.q.q.q.q.q.q.q.q.<.-.-.-.-.:.-.`.`.`.`.",
"`.`.`.`.`.`.`.`.`.`.`.`.`.`.`.W.~.I   8 > > 3 y y s g h m m f s f f f f g i 6 O.a.q.2.q.q.q.q.q.q.q.q.q.q.q.2.:.-.-.:.q.:.`.`.`.",
"`.`.`.`.`.`.`.`.`.`.`.`.`.`.`.B.~.R n T D D Z M h 7 > : : 7 f h h g f h i 6 #.a.q.q.q.q.q.q.q.q.q.q.q.q.q.q.q.q.:.-.:.,.:.`.`.`.",
"`.`.`.`.`.`.`.`.`.`.`.`.`.`.>.K.~.H.>.3.1.1.,.-.=.%.@. .T A 5 : < i m i 6 #.q.q.q.q.q.q.q.q.q.q.q.q.q.q.q.q.q.q.q.:.-.:.<.,.`.`.",
"`.`.`.`.`.`.`.`.`.`.`.`.`.`.9.p.!.U.7.r.e.e.r.e.a.a.r.w.e.:.%.X.D f : , @.p.q.q.q.q.q.q.q.q.q.q.q.q.q.q.q.q.q.q.q.q.<.-.<.:.`.`.",
"`.`.`.`.`.`.`.`.`.`.`.`.`.w.d.6.W.N.e.9.q.q.q.q.q.2.q.q.a.g.p.p.1.=. .+.q.q.q.q.q.q.q.q.a.a.q.q.q.q.q.q.q.q.q.q.q.q.q.1.,.-.`.`.",
"`.`.`.`.`.`.`.`.`.`.`.`.`.q.d.7.K.n.K.5.w.q.q.q.q.q.q.q.q.q.-.:.a.a.q.e.q.q.q.q.q.q.e.q.:.:.w.e.q.q.q.q.q.q.a.q.q.q.q.q.1.1.`.`.",
"`.`.`.`.`.`.`.`.`.`.`.`.`.q.t.9.t.n.V.u.q.q.q.q.q.q.q.q.q.X.g f X.q.q.q.q.q.q.q.q.q.q...f f o.q.q.q.q.q.q.q.q.q.q.q.q.q.q.a.:.`.",
"`.`.`.`.`.`.`.`.`.`.`.`.`.w.r.q.i.N.m.T.8.w.q.q.q.q.q.p.%.: p 7 < %.a.q.q.q.q.q.q.r.$.: p 3 3 %.p.q.q.q.q.q.q.q.q.q.q.q.q.f.3.`.",
"`.`.`.`.`.`.`.`.`.`.`.`.`.e.w.w.u.L.] J.u.2.w.q.q.q.q.w.| > m m :  .e.q.q.q.q.q.w.w.| < M M : ..e.q.q.q.q.q.q.q.q.q.2.q.q.p.w.`.",
"`.`.`.`.`.`.`.`.`.`.`.`.`.p.e.w.5.K.[ v.a.9.w.q.q.q.q.q.G 1 g m : ..q.q.q.q.q.q.e.q.{ < g h : | q.q.q.q.q.q.q.q.q.q.q.q.q.p.w.`.",
"`.`.`.`.`.`.`.`.`.`.`.`.`.p.q.q.9.p.v.' K.0.q.w.q.q.q.q...: m m : X.q.q.q.q.q.q.q.q.| : m M : X.e.q.q.q.q.q.q.q.q.q.q.q.q.a.w.`.",
"`.`.`.`.`.`.`.`.`.`.`.`.`.d.q.q.2.u.E.^ V.i.q.q.q.q.q.p.*.3 1 > p *.p.q.q.q.q.q.q.p.%.1 1 : i ;.e.q.q.q.q.q.q.q.q.q.q.q.q.a.q.`.",
"`.`.`.`.`.`.`.`.`.`.`.`.`.r.q.q.2.6.P.' ] Y.8.q.q.q.q.q.q.+.Z Z #.q.q.q.q.q.q.q.q.q.w.+.Z Z $.q.q.q.q.q.q.q.q.q.q.q.q.q.q.a.w.`.",
"`.`.`.`.`.`.`.`.`.`.`.`.`.r.e.q.t.8.Y.c.~ W.0.q.w.w.q.q.q.q.<.1.a.q.q.q.q.q.a.a.2.q.a.q.1.1.q.q.q.2.2.a.q.q.q.q.q.q.q.q.q.p.a.`.",
"`.`.`.`.`.`.`.`.`.`.`.`.`.q.r.q.w.2.p.N.! b.s.9.w.q.q.q.q.q.p.q.q.q.q.q.q.q.2.2.a.2.q.2.a.q.q.q.a.a.2.q.q.q.a.q.q.w.q.q.q.p.w.`.",
"`.`.`.`.`.`.`.`.`.`.`.`.`.q.p.q.q.2.0.U.( _ I.5.2.q.q.q.q.q.q.q.q.q.q.q.a.2.q.q.q.q.a.2.q.q.q.q.2.q.q.q.q.q.q.q.q.q.q.q.q.f.s.`.",
"`.`.`.`.`.`.`.`.`.`.`.`.`.q.p.w.q.w.5.K.] ! N.p.q.q.q.q.q.q.q.q.q.q.q.q.q.q.q.2.q.q.q.q.q.q.q.q.2.a.q.q.q.q.q.q.q.q.q.q.q.f.t.`.",
"`.`.`.`.`.`.`.`.`.`.`.`.`.q.d.w.q.w.9.s.b.! ] K.5.q.q.q.q.q.q.q.q.q.q.q.q.q.q.a.q.a.q.q.w.q.2.2.2.q.q.a.q.q.q.q.q.q.q.q.q.a.`.`.",
"`.`.`.`.`.`.`.`.`.`.`.`.`.`.r.w.q.q.q.0.C.! ~ C.0.q.q.q.r.r.q.q.q.q.q.q.q.q.q.q.q.2.2.a.2.a.a.a.a.2.q.2.q.q.q.q.q.q.q.q.p.w.`.`.",
"`.`.`.`.`.`.`.`.`.`.`.`.`.`.q.r.q.q.q.6.I.` ! c.Y.8.q.e.&.X.:.e.q.q.q.q.q.q.q.2.q.q.q.2.a.-.X.=.a.q.q.q.q.q.q.q.q.q.q.q.f.w.`.`.",
"`.`.`.`.`.`.`.`.`.`.`.`.`.`.q.d.q.q.w.0.Y.[ ! _ W.0.w.%.s o $.p.q.q.q.q.q.q.q.a.q.q.q.q.a.X.O B *.a.q.q.q.w.q.q.q.q.q.w.p.`.`.`.",
"`.`.`.`.`.`.`.`.`.`.`.`.`.`.`.q.q.q.q.q.a.Z.! ~ N.g.;.V : S :.q.q.q.q.q.q.q.q.q.q.q.q.q.p.=.C : Z -.a.q.q.q.q.a.2.q.q.p.s.`.`.`.",
"`.`.`.`.`.`.`.`.`.`.`.`.`.`.`.q.d.q.w.q.0.W.! ` I.u. .o 2 S 2.r.q.q.q.q.q.q.q.q.q.q.q.q.p.:.B 7 o @.p.q.q.q.q.q.q.q.q.a.`.`.`.`.",
"`.`.`.`.`.`.`.`.`.`.`.`.`.`.`.`.q.e.q.w.8.P./ v.p.9.:.%.{ : | 2.a.q.q.q.q.q.q.q.q.2.q.p.1.G : | %.:.q.q.q.q.q.q.2.q.p.s.`.`.`.`.",
"`.`.`.`.`.`.`.`.`.`.`.`.`.`.`.`.q.f.q.w.8.Y.n.J.7.w.a.p.:.B : | :.q.q.p.e.q.p.p.a.p.q.-.F o D <.p.q.q.q.q.q.q.q.w.q.p.`.`.`.`.`.",
"`.`.`.`.`.`.`.`.`.`.`.`.`.`.`.`.`.q.d.w.q.t.Q.t.9.w.2.q.a.*.g o A X.%.:.<.1.<.<.-.%...B o C -.e.q.q.a.q.q.q.q.q.w.f.t.`.`.`.`.`.",
"`.`.`.`.`.`.`.`.`.`.`.`.`.`.`.`.`.`.w.p.q.w.t.q.q.q.q.q.q.a.*.Z o : i Z S D D S A 7 o o D -.r.q.q.q.q.q.q.q.q.q.f.w.`.`.`.`.`.`.",
"`.`.`.`.`.`.`.`.`.`.`.`.`.`.`.`.`.`.`.q.r.q.q.q.q.q.q.q.q.q.q.:.| g : o : : : : : : M  .<.r.q.q.q.q.q.q.q.q.q.p.w.`.`.`.`.`.`.`.",
"`.`.`.`.`.`.`.`.`.`.`.`.`.`.`.`.`.`.`.`.r.a.w.q.q.q.q.q.q.q.q.a.q.=.o.F S S S S { O.-.w.q.q.q.q.q.q.q.q.q.2.f.q.`.`.`.`.`.`.`.`.",
"`.`.`.`.`.`.`.`.`.`.`.`.`.`.`.`.`.`.`.`.`.q.p.w.q.q.q.q.q.q.q.q.q.a.e.2.<.<.1.1.q.q.r.q.q.q.q.q.q.q.q.q.q.f.q.`.`.`.`.`.`.`.`.`.",
"`.`.`.`.`.`.`.`.`.`.`.`.`.`.`.`.`.`.`.`.`.`.q.d.q.q.q.q.q.q.q.q.q.q.q.q.e.e.q.p.e.q.q.q.q.q.q.q.q.q.q.a.d.q.`.`.`.`.`.`.`.`.`.`.",
"`.`.`.`.`.`.`.`.`.`.`.`.`.`.`.`.`.`.`.`.`.`.`.q.r.d.q.q.q.q.q.q.q.q.q.q.q.q.q.q.q.q.q.q.q.q.q.q.q.q.d.q.q.`.`.`.`.`.`.`.`.`.`.`.",
"`.`.`.`.`.`.`.`.`.`.`.`.`.`.`.`.`.`.`.`.`.`.`.`.`.q.d.d.q.q.q.w.q.q.q.q.q.q.q.q.q.q.q.q.q.q.q.q.d.r.q.`.`.`.`.`.`.`.`.`.`.`.`.`.",
"`.`.`.`.`.`.`.`.`.`.`.`.`.`.`.`.`.`.`.`.`.`.`.`.`.`.q.q.p.f.p.q.q.q.q.w.q.q.q.q.q.q.q.q.w.p.f.q.q.`.`.`.`.`.`.`.`.`.`.`.`.`.`.`.",
"`.`.`.`.`.`.`.`.`.`.`.`.`.`.`.`.`.`.`.`.`.`.`.`.`.`.`.`.`.q.q.p.f.f.p.a.e.q.r.r.p.d.f.d.e.q.q.`.`.`.`.`.`.`.`.`.`.`.`.`.`.`.`.`.",
"`.`.`.`.`.`.`.`.`.`.`.`.`.`.`.`.`.`.`.`.`.`.`.`.`.`.`.`.`.`.`.`.q.q.q.q.q.q.q.q.q.w.q.`.`.`.`.`.`.`.`.`.`.`.`.`.`.`.`.`.`.`.`.`.",
"`.`.`.`.`.`.`.`.`.`.`.`.`.`.`.`.`.`.`.`.`.`.`.`.`.`.`.`.`.`.`.`.`.`.`.`.`.`.`.`.`.`.`.`.`.`.`.`.`.`.`.`.`.`.`.`.`.`.`.`.`.`.`.`."
};
