/* XPM */
static char *bitcoin16[] = {
/* columns rows colors chars-per-pixel */
"16 16 144 2 ",
"   c black",
".  c #050000",
"X  c #030007",
"o  c #00000F",
"O  c #130D12",
"+  c #0A1218",
"@  c #131315",
"#  c #141517",
"$  c #141B1F",
"%  c #1C191A",
"&  c #1F1C1F",
"*  c #230000",
"=  c #240000",
"-  c #261A0C",
";  c #301C00",
":  c #201D1D",
">  c #231F20",
",  c #132129",
"<  c #1F272D",
"1  c #1B323E",
"2  c #232020",
"3  c #242020",
"4  c #242021",
"5  c #252021",
"6  c #252121",
"7  c #242022",
"8  c #202025",
"9  c #282424",
"0  c #23262C",
"q  c #2E2B2B",
"w  c #292B2F",
"e  c #292D2F",
"r  c #2D2D2C",
"t  c #2E3133",
"y  c #2D343A",
"u  c #2F383D",
"i  c #373C3F",
"p  c #3C383A",
"a  c #303B41",
"s  c #3B5E71",
"d  c #3E657A",
"f  c #454242",
"g  c #524B47",
"h  c #524D4A",
"j  c #575351",
"k  c #68615C",
"l  c #73675E",
"z  c #405969",
"x  c #6E6661",
"c  c #736964",
"v  c #837771",
"b  c #847972",
"n  c #2B7B9B",
"m  c #427892",
"M  c #457892",
"N  c #457993",
"B  c #467A93",
"V  c #477A94",
"C  c #477B97",
"Z  c #4C849F",
"A  c #4F8CAA",
"S  c #5396B5",
"D  c #5498B8",
"F  c #5699B9",
"G  c #5B9EBE",
"H  c #579FC1",
"J  c #49A1C7",
"K  c #58A0C3",
"L  c #58A1C3",
"P  c #58A3C6",
"I  c #5BA6CA",
"U  c #5CA8CB",
"Y  c #5CA8CD",
"T  c #51ADD5",
"R  c #5DABD0",
"E  c #5EACD0",
"W  c #5EACD1",
"Q  c #61B3D9",
"!  c #62B6DC",
"~  c #63B6DC",
"^  c #63B7DE",
"/  c #66B6DC",
"(  c #51BAE5",
")  c #5ABDE8",
"_  c #5CBEE9",
"`  c #66B9E1",
"'  c #64BAE1",
"]  c #65BAE1",
"[  c #65BBE2",
"{  c #65BBE3",
"}  c #66BBE3",
"|  c #65BCE3",
" . c #66BCE2",
".. c #66BCE3",
"X. c #66BCE4",
"o. c #66BDE4",
"O. c #67BCE5",
"+. c #67BDE6",
"@. c #66BEE6",
"#. c #67BEE6",
"$. c #68BDE4",
"%. c #69BCE5",
"&. c #68BEE7",
"*. c #6ABEE6",
"=. c #6FBFE7",
"-. c #4CC0EE",
";. c #52C0EC",
":. c #54C1EE",
">. c #64C1EA",
",. c #68C0E9",
"<. c #69C0E9",
"1. c #6AC0E8",
"2. c #69C0EA",
"3. c #69C2EB",
"4. c #6AC2EB",
"5. c #6EC1E9",
"6. c #69C2EC",
"7. c #69C3ED",
"8. c #6AC2EC",
"9. c #6AC3ED",
"0. c #6AC4ED",
"q. c #69C5EE",
"w. c #6AC4EE",
"e. c #6BC5EF",
"r. c #78C7EF",
"t. c #6BC6F1",
"y. c #6BC7F1",
"u. c #6CC6F0",
"i. c #6DC8F2",
"p. c #6FCBF7",
"a. c #6FCCF7",
"s. c #74C9F2",
"d. c #9D9087",
"f. c #89A3B8",
"g. c #DFAC98",
"h. c #C4B3B4",
"j. c #84B0CD",
"k. c #98B9D1",
"l. c #9CBDD3",
"z. c #B8BDCA",
"x. c #C6BBC1",
"c. c #A3C0D9",
"v. c #B4C8DB",
"b. c None",
/* pixels */
"b.b.b.b.b.b.b.b.b.b.b.b.6 6 b.b.",
"b.b.b.b.b.b.b.: 6 > > 6 > b.b.b.",
"b.b.b.b.b.X k h O 9 & # b.b.b.b.",
"b.b.p 8 g b x q % @ + , . b.b.b.",
"b.f w c d.j 0 t e < $   1 b.b.b.",
"b.b.b.b.l o i u a r - m P W b.b.",
"b.b.b.b.v   ; * = y F 2.X.^ W b.",
"b.b.b.b.l.J G A d P q.X...} &.b.",
"b.b.b.5.v.4.>.Z K y.F C ....y.} ",
"b.b.b.:.z.k.( z D y.S d [ ..2.1.",
"b.b.b.-.l.h.;.&.} ..^ ,.X...q.1.",
"b.b.b.@.r.g.j.T &.} 2.Y Q X.i.b.",
"b.b.b.b.) x.f.n / X.^ M U q.&.b.",
"b.b.b.b.b.s.6.I B B N R q.4.b.b.",
"b.b.b.b.b.b.X.a.6.^ 4.s.&.b.b.b.",
"b.b.b.b.b.b.b.b.2.6.2.b.b.b.b.b."
};
