/* XPM */
static char *bitcoin32[] = {
/* columns rows colors chars-per-pixel */
"32 32 145 2 ",
"   c #000001",
".  c #0A0000",
"X  c #030008",
"o  c #0B070E",
"O  c #140000",
"+  c #180000",
"@  c #000013",
"#  c #090F13",
"$  c #0D1216",
"%  c #0F1519",
"&  c #101115",
"*  c #12161A",
"=  c #161A1E",
"-  c #1E1B1D",
";  c #240300",
":  c #260900",
">  c #310000",
",  c #271100",
"<  c #281000",
"1  c #2B1A00",
"2  c #211D1E",
"3  c #292016",
"4  c #000921",
"5  c #0E1622",
"6  c #001E2A",
"7  c #0D1B23",
"8  c #101A20",
"9  c #1A1F24",
"0  c #231F20",
"q  c #132027",
"w  c #1E2326",
"e  c #152731",
"r  c #252122",
"t  c #2B2626",
"y  c #2D2827",
"u  c #262A2E",
"i  c #2D2A29",
"p  c #2C2C30",
"a  c #2D3235",
"s  c #2E363A",
"d  c #2F383D",
"f  c #343334",
"g  c #323638",
"h  c #3A3739",
"j  c #3E3C3D",
"k  c #35393C",
"l  c #403D3F",
"z  c #2F3B41",
"x  c #32424C",
"c  c #234150",
"v  c #2A4C5E",
"b  c #334751",
"n  c #344853",
"m  c #375261",
"M  c #395666",
"N  c #3B5C6E",
"B  c #3D6275",
"V  c #454142",
"C  c #4F4B4A",
"Z  c #5B5551",
"A  c #675F5A",
"S  c #40687D",
"D  c #776D68",
"F  c #736B66",
"G  c #7B746F",
"H  c #877C75",
"J  c #887A71",
"K  c #90857D",
"L  c #99897E",
"P  c #FC9F4B",
"I  c #FA9C44",
"U  c #F6A568",
"Y  c #ECA67A",
"T  c #05799A",
"R  c #416D83",
"E  c #4A6F84",
"W  c #447087",
"Q  c #44738B",
"!  c #477A94",
"~  c #4A7C96",
"^  c #3385A6",
"/  c #46829F",
"(  c #4B829D",
")  c #4A84A1",
"_  c #4E89A5",
"`  c #4F8CA9",
"'  c #528FAC",
"]  c #5293B2",
"[  c #579DBE",
"{  c #59A3C6",
"}  c #5DAACE",
"|  c #4EAED6",
" . c #4AAFD8",
".. c #5FADD2",
"X. c #60B0D6",
"o. c #62B5DB",
"O. c #64B8DF",
"+. c #7ABCDF",
"@. c #47BAE7",
"#. c #4BBEEA",
"$. c #45BEEC",
"%. c #5BBCE6",
"&. c #58BDE8",
"*. c #66BBE3",
"=. c #6ABCE3",
"-. c #67BFE8",
";. c #68BFE8",
":. c #72BFE4",
">. c #7ABEE1",
",. c #59C0EB",
"<. c #4FC6F5",
"1. c #55C6F5",
"2. c #58C6F4",
"3. c #64C1EB",
"4. c #69C2EB",
"5. c #71C5EE",
"6. c #79C3E8",
"7. c #64C5F1",
"8. c #6CC6F0",
"9. c #6EC9F4",
"0. c #9C9189",
"q. c #AA9B91",
"w. c #BBACA2",
"e. c #DCAB96",
"r. c #E9AB88",
"t. c #E1B39D",
"y. c #D1AFA6",
"u. c #C7B4A6",
"i. c #DBB2A1",
"p. c #C6B4B5",
"a. c #C2B5B8",
"s. c #D2B9B2",
"d. c #8BBBDA",
"f. c #91BBD7",
"g. c #9CBBD3",
"h. c #97BFDA",
"j. c #ACB7C7",
"k. c #A7BBCE",
"l. c #ADBCCC",
"z. c #B8BAC4",
"x. c #A7BCD0",
"c. c #C2BEC4",
"v. c #86C2E2",
"b. c #C2C8D2",
"n. c None",
/* pixels */
"n.n.n.n.n.n.n.n.n.n.n.n.n.n.n.n.n.n.n.n.n.n.n.n.n.n.n.n.n.n.n.n.",
"n.n.n.n.n.n.n.n.n.n.n.n.n.n.n.n.n.n.n.n.n.n.0 0 0 0 r 0 n.n.n.n.",
"n.n.n.n.n.n.n.n.n.n.n.n.n.n.n.n.0 0 r 2 0 r r r r r n.n.n.n.n.n.",
"n.n.n.n.n.n.n.n.n.n.n.n.n.o   r r r r r 0 r 0 0 n.n.n.n.n.n.n.n.",
"n.n.n.n.n.n.n.n.n.n.n.t   t Z r 2 0 0 r 0 r - * n.n.n.n.n.n.n.n.",
"n.n.n.n.n.n.n.n.n.y o   Z 0.G X r r r 0 - * $ $ n.n.n.n.n.n.n.n.",
"n.n.n.n.n.n.- y 0   t H 0.A   0 r 2 2 * $ $ % * $ n.n.n.n.n.n.n.",
"n.n.n.n.f f j i w D q.K h X i r 2 & # $ & % $ $ * e n.n.n.n.n.n.",
"n.n.l j V V j C q.w.F 5 h V j a u w = $ # $ % q *   n.n.n.n.n.n.",
"n.n.n.n.n.n.n.n.u.6 @ l j g a a g a p u 9 8 7     v ) n.n.n.n.n.",
"n.n.n.n.n.n.n.n.J X j a a a s a s a a s s r . c ) { o.} n.n.n.n.",
"n.n.n.n.n.n.n.n.L # k s a a a a a a s d 3 i ( ..o.....*.} n.n.n.",
"n.n.n.n.n.n.n.n.q.@ k s s s s s a a d , n [ ;.;.*.o.} } O.} n.n.",
"n.n.n.n.n.n.n.n.w.  1 < : : 1 t s d : M ..;.*.*.*.*.O.....} n.n.",
"n.n.n.n.n.n.n.l.z.^ ' _ ~ R m a : ; N X.;.*.*.*.*.*.*.*.X.o.} n.",
"n.n.n.n.n.n.n.>.b.6.3.4.;.*.o.} _ W ..4.*.*.;.*.*.*.*.*.*.*.} n.",
"n.n.n.n.n.n.n.3.c.k.@.O.*.4...` ..-.*.*.;.} ( ..-.*.*.O.=.;.o.n.",
"n.n.n.n.n.n.=.2.l.s.%.*.*.-.R O Q -.*.*.*.R + Q *.*.*.*.*.*.4.n.",
"n.n.n.n.n.n.=.2.d.t.f.@.=.O.N + B o.-.*.O.N + B *.-.O.*.*.*.8.;.",
"n.n.n.n.n.n.=.7.-.i.p.$.=.-.] x ] -.*.*.-.] x ] -.*.*.*.*.*.4.=.",
"n.n.n.n.n.n.;.4.#.a.r.:.%.=.*.o.-.*.*.*.*.*.o.*.*.*.=.O.=.*.4.=.",
"n.n.n.n.n.n.*.5.#.g.U j.#.O.-.;.*.*.*.*.*.*.;.-.*.*.*.*.*.-.4.n.",
"n.n.n.n.n.n.n.=.&.:.Y e.&.-.=.O.*.*.*.*.*.*.O.*.-.*.*.*.*.4.=.n.",
"n.n.n.n.n.n.n.=.4.&.y.I h. .! ..-.*.*.*.*.-.} ! X.-.*.*.*.8.=.n.",
"n.n.n.n.n.n.n.n.5.#.z.P x.T > o.4.*.*.*.-.4...; ~ -.*.*.*.4.n.n.",
"n.n.n.n.n.n.n.n.=.<.g.s.+.| E Q o.-.4.4.4.o.R Q X.*.*.*.8.=.n.n.",
"n.n.n.n.n.n.n.n.n.-.6.v.*.-.o.B b ! _ _ ! x S O.4.*.O.4.=.n.n.n.",
"n.n.n.n.n.n.n.n.n.n.3.3.*.*.-.o._ m x x m ` O.;.O.*.4.-.n.n.n.n.",
"n.n.n.n.n.n.n.n.n.n.n.=.8.;.O.;.3.O.o.X.*.4.*.*.-.9.*.n.n.n.n.n.",
"n.n.n.n.n.n.n.n.n.n.n.n.*.4.8.;.*.-.;.-.;.*.;.9.-.=.n.n.n.n.n.n.",
"n.n.n.n.n.n.n.n.n.n.n.n.n.n.;.*.4.4.4.9.4.4.*.*.n.n.n.n.n.n.n.n.",
"n.n.n.n.n.n.n.n.n.n.n.n.n.n.n.n.n.n.-.*.n.n.n.n.n.n.n.n.n.n.n.n."
};
