<?xml version="1.0" encoding="UTF-8" standalone="no"?>
<!-- Created with Inkscape (http://www.inkscape.org/) -->

<svg
   xmlns:dc="http://purl.org/dc/elements/1.1/"
   xmlns:cc="http://creativecommons.org/ns#"
   xmlns:rdf="http://www.w3.org/1999/02/22-rdf-syntax-ns#"
   xmlns:svg="http://www.w3.org/2000/svg"
   xmlns="http://www.w3.org/2000/svg"
   xmlns:sodipodi="http://sodipodi.sourceforge.net/DTD/sodipodi-0.dtd"
   xmlns:inkscape="http://www.inkscape.org/namespaces/inkscape"
   id="svg3390"
   version="1.1"
   inkscape:version="0.91 r13725"
   xml:space="preserve"
   width="275.61124"
   height="216.09"
   viewBox="0 0 275.61124 216.09"
   sodipodi:docname="aur_logo_greencircle.svg"><metadata
     id="metadata3396"><rdf:RDF><cc:Work
         rdf:about=""><dc:format>image/svg+xml</dc:format><dc:type
           rdf:resource="http://purl.org/dc/dcmitype/StillImage" /><dc:title></dc:title></cc:Work></rdf:RDF></metadata><defs
     id="defs3394"><clipPath
       clipPathUnits="userSpaceOnUse"
       id="clipPath3404"><path
         d="m 0,172.872 220.489,0 L 220.489,0 0,0 0,172.872 Z"
         id="path3406"
         inkscape:connector-curvature="0" /></clipPath></defs><sodipodi:namedview
     pagecolor="#ffffff"
     bordercolor="#666666"
     borderopacity="1"
     objecttolerance="10"
     gridtolerance="10"
     guidetolerance="10"
     inkscape:pageopacity="0"
     inkscape:pageshadow="2"
     inkscape:window-width="1280"
     inkscape:window-height="915"
     id="namedview3392"
     showgrid="false"
     inkscape:zoom="1.4458772"
     inkscape:cx="121.2067"
     inkscape:cy="108.045"
     inkscape:window-x="0"
     inkscape:window-y="31"
     inkscape:window-maximized="1"
     inkscape:current-layer="g3398" /><g
     id="g3398"
     inkscape:groupmode="layer"
     inkscape:label="aur_logo_greencircle"
     transform="matrix(1.25,0,0,-1.25,0,216.09)"><g
       id="g3400"
       inkscape:export-xdpi="135.66208"
       inkscape:export-ydpi="135.66208"><g
         id="g3402"
         clip-path="url(#clipPath3404)"><g
           id="g3408"
           transform="translate(135.2637,100.4673)"><path
             d="m 0,0 5.3,-10.01 -38.268,-19.412 0,-31.813 -11.192,0 0,87.735 11.192,0 0,-14.417 L 0,28.851 5.3,18.842 -32.968,-0.566 l 0,-16.199 L 0,0 Z m -20.894,51.813 c -37.522,0 -67.935,-30.414 -67.935,-67.939 0,-37.515 30.413,-67.928 67.935,-67.928 37.518,0 67.932,30.413 67.932,67.928 0,37.525 -30.414,67.939 -67.932,67.939"
             style="fill:#23685a;fill-opacity:1;fill-rule:evenodd;stroke:none"
             id="path3410"
             inkscape:connector-curvature="0" /></g></g></g></g></svg>